<svg xmlns="http://www.w3.org/2000/svg" xmlns:xlink="http://www.w3.org/1999/xlink" width="1024" zoomAndPan="magnify" viewBox="0 0 768 576" height="768" preserveAspectRatio="xMidYMid meet" version="1.0"><defs><clipPath id="afa19820eb"><path d="M 129 82 L 665.117188 82 L 665.117188 497 L 129 497 Z M 129 82 " clip-rule="nonzero"/></clipPath><clipPath id="09d04963b0"><path d="M 129 303.351562 L 665.117188 303.351562 L 665.117188 497 L 129 497 Z M 129 303.351562 " clip-rule="nonzero"/></clipPath></defs><g clip-path="url(#afa19820eb)"><path fill="#3734a7" d="M 368.59375 169.390625 C 373.882812 159.070312 377.59375 150.847656 382.136719 143.121094 C 399.828125 112.996094 423.878906 90.5 459.515625 84.683594 C 488.566406 79.945312 516.683594 84.871094 542.871094 98.734375 C 577.457031 117.046875 597.34375 146.492188 605.203125 184.136719 C 611.472656 214.144531 608.058594 243.769531 598.433594 272.726562 C 597.351562 275.984375 595.894531 279.121094 594.417969 282.792969 C 552.089844 282.792969 510.042969 282.792969 466.472656 282.792969 C 463.46875 277.21875 459.910156 270.882812 456.589844 264.417969 C 451.816406 255.15625 447.054688 245.890625 442.601562 236.480469 C 438.800781 228.464844 433.558594 222.066406 424.046875 222.675781 C 414.792969 223.269531 409.957031 229.53125 406.863281 238.140625 C 398.355469 261.824219 389.246094 285.304688 380.351562 308.851562 C 379.59375 310.855469 378.691406 312.816406 377.164062 316.453125 C 375.332031 312.941406 373.78125 310.726562 372.964844 308.253906 C 362.253906 276.148438 351.648438 244.007812 341.015625 211.875 C 340.335938 209.816406 339.851562 207.683594 339.046875 205.675781 C 336.070312 198.226562 330.910156 193.070312 322.589844 193 C 314.46875 192.9375 308.707031 197.207031 305.613281 204.875 C 297.824219 224.199219 290.007812 243.511719 282.15625 262.8125 C 279.546875 269.230469 276.785156 275.582031 273.472656 283.425781 C 268.578125 283.425781 263.46875 283.417969 258.363281 283.425781 C 245.765625 283.457031 233.148438 283.125 220.566406 283.644531 C 210.539062 284.050781 204.261719 290.886719 204.027344 300.25 C 203.8125 309.113281 209.300781 316.066406 218.226562 317.882812 C 220.75 318.390625 223.414062 318.324219 226.007812 318.332031 C 244.691406 318.359375 263.382812 318.082031 282.058594 318.4375 C 293.167969 318.648438 299.9375 313.796875 303.820312 303.5625 C 308.730469 290.621094 314.171875 277.882812 320.375 262.628906 C 323.082031 270.324219 325.097656 275.738281 326.914062 281.21875 C 337.273438 312.53125 347.609375 343.847656 357.886719 375.191406 C 360.519531 383.21875 364.78125 389.148438 374.097656 389.664062 C 383.230469 390.175781 388.851562 386.625 392.695312 376.671875 C 399.882812 358.050781 406.730469 339.296875 413.726562 320.601562 C 417.972656 309.242188 422.242188 297.894531 427.214844 284.617188 C 430.71875 291.464844 433.890625 296.464844 435.9375 301.902344 C 440.570312 314.207031 448.992188 318.65625 462.101562 318.554688 C 521.625 318.089844 581.15625 318.339844 640.6875 318.355469 C 645.023438 318.355469 649.425781 318.113281 653.703125 318.679688 C 660.410156 319.558594 665.121094 324.898438 665.167969 330.867188 C 665.214844 336.757812 660.550781 342.210938 653.910156 343.335938 C 650.523438 343.90625 646.984375 343.660156 643.511719 343.667969 C 618.746094 343.699219 593.980469 343.800781 569.210938 343.644531 C 563.644531 343.605469 559.5625 344.855469 555.832031 349.621094 C 516.5 399.902344 467.097656 438.621094 413.457031 472.316406 C 401.328125 479.9375 388.691406 486.738281 376.375 494.066406 C 371.496094 496.96875 367.082031 497.363281 361.847656 494.445312 C 295.730469 457.601562 234.65625 414.378906 186.210938 355.308594 C 160.851562 324.390625 141.261719 290.273438 133.179688 250.617188 C 125.28125 211.84375 128.449219 174.230469 149.949219 140.109375 C 171.84375 105.359375 204.964844 88.082031 245.148438 83.851562 C 294.988281 78.601562 330.433594 100.898438 355.316406 142.640625 C 357.753906 146.738281 359.800781 151.078125 361.921875 155.347656 C 363.839844 159.175781 365.613281 163.082031 368.59375 169.390625 Z M 368.59375 169.390625 " fill-opacity="1" fill-rule="nonzero"/></g><g clip-path="url(#09d04963b0)"><path fill="#dde2f7" d="M 368.59375 169.390625 C 373.882812 159.070312 377.59375 150.847656 382.136719 143.121094 C 399.828125 112.996094 423.878906 90.5 459.515625 84.683594 C 488.566406 79.945312 516.683594 84.871094 542.871094 98.734375 C 577.457031 117.046875 597.34375 146.492188 605.203125 184.136719 C 611.472656 214.144531 608.058594 243.769531 598.433594 272.726562 C 597.351562 275.984375 595.894531 279.121094 594.417969 282.792969 C 552.089844 282.792969 510.042969 282.792969 466.472656 282.792969 C 463.46875 277.21875 459.910156 270.882812 456.589844 264.417969 C 451.816406 255.15625 447.054688 245.890625 442.601562 236.480469 C 438.800781 228.464844 433.558594 222.066406 424.046875 222.675781 C 414.792969 223.269531 409.957031 229.53125 406.863281 238.140625 C 398.355469 261.824219 389.246094 285.304688 380.351562 308.851562 C 379.59375 310.855469 378.691406 312.816406 377.164062 316.453125 C 375.332031 312.941406 373.78125 310.726562 372.964844 308.253906 C 362.253906 276.148438 351.648438 244.007812 341.015625 211.875 C 340.335938 209.816406 339.851562 207.683594 339.046875 205.675781 C 336.070312 198.226562 330.910156 193.070312 322.589844 193 C 314.46875 192.9375 308.707031 197.207031 305.613281 204.875 C 297.824219 224.199219 290.007812 243.511719 282.15625 262.8125 C 279.546875 269.230469 276.785156 275.582031 273.472656 283.425781 C 268.578125 283.425781 263.46875 283.417969 258.363281 283.425781 C 245.765625 283.457031 233.148438 283.125 220.566406 283.644531 C 210.539062 284.050781 204.261719 290.886719 204.027344 300.25 C 203.8125 309.113281 209.300781 316.066406 218.226562 317.882812 C 220.75 318.390625 223.414062 318.324219 226.007812 318.332031 C 244.691406 318.359375 263.382812 318.082031 282.058594 318.4375 C 293.167969 318.648438 299.9375 313.796875 303.820312 303.5625 C 308.730469 290.621094 314.171875 277.882812 320.375 262.628906 C 323.082031 270.324219 325.097656 275.738281 326.914062 281.21875 C 337.273438 312.53125 347.609375 343.847656 357.886719 375.191406 C 360.519531 383.21875 364.78125 389.148438 374.097656 389.664062 C 383.230469 390.175781 388.851562 386.625 392.695312 376.671875 C 399.882812 358.050781 406.730469 339.296875 413.726562 320.601562 C 417.972656 309.242188 422.242188 297.894531 427.214844 284.617188 C 430.71875 291.464844 433.890625 296.464844 435.9375 301.902344 C 440.570312 314.207031 448.992188 318.65625 462.101562 318.554688 C 521.625 318.089844 581.15625 318.339844 640.6875 318.355469 C 645.023438 318.355469 649.425781 318.113281 653.703125 318.679688 C 660.410156 319.558594 665.121094 324.898438 665.167969 330.867188 C 665.214844 336.757812 660.550781 342.210938 653.910156 343.335938 C 650.523438 343.90625 646.984375 343.660156 643.511719 343.667969 C 618.746094 343.699219 593.980469 343.800781 569.210938 343.644531 C 563.644531 343.605469 559.5625 344.855469 555.832031 349.621094 C 516.5 399.902344 467.097656 438.621094 413.457031 472.316406 C 401.328125 479.9375 388.691406 486.738281 376.375 494.066406 C 371.496094 496.96875 367.082031 497.363281 361.847656 494.445312 C 295.730469 457.601562 234.65625 414.378906 186.210938 355.308594 C 160.851562 324.390625 141.261719 290.273438 133.179688 250.617188 C 125.28125 211.84375 128.449219 174.230469 149.949219 140.109375 C 171.84375 105.359375 204.964844 88.082031 245.148438 83.851562 C 294.988281 78.601562 330.433594 100.898438 355.316406 142.640625 C 357.753906 146.738281 359.800781 151.078125 361.921875 155.347656 C 363.839844 159.175781 365.613281 163.082031 368.59375 169.390625 Z M 368.59375 169.390625 " fill-opacity="1" fill-rule="nonzero"/></g><path stroke-linecap="round" transform="matrix(0.75, 0.000000000000000452, -0.000000000000000452, 0.75, 216.356636, 293.133231)" fill="none" stroke-linejoin="miter" d="M 8.998444 8.999442 L 85.217198 8.999442 " stroke="#de0f3f" stroke-width="18" stroke-opacity="1" stroke-miterlimit="4"/><path stroke-linecap="round" transform="matrix(0.285184, -0.693664, 0.693664, 0.285184, 277.581668, 303.324967)" fill="none" stroke-linejoin="miter" d="M 8.999912 8.999063 L 126.938323 9.002797 " stroke="#de0f3f" stroke-width="18" stroke-opacity="1" stroke-miterlimit="4"/><path stroke-linecap="round" transform="matrix(-0.243534, -0.70936, 0.70936, -0.243534, 370.792221, 376.748968)" fill="none" stroke-linejoin="miter" d="M 9.001449 9.0001 L 217.112395 8.997859 " stroke="#de0f3f" stroke-width="18" stroke-opacity="1" stroke-miterlimit="4"/><path stroke-linecap="round" transform="matrix(0.257198, -0.70452, 0.70452, 0.257198, 368.962895, 370.600553)" fill="none" stroke-linejoin="miter" d="M 9.000005 8.99833 L 181.269799 8.999924 " stroke="#de0f3f" stroke-width="18" stroke-opacity="1" stroke-miterlimit="4"/><path stroke-linecap="round" transform="matrix(-0.349901, -0.663377, 0.663377, -0.349901, 450.000797, 306.497263)" fill="none" stroke-linejoin="miter" d="M 8.999747 8.997202 L 90.989591 8.998468 " stroke="#de0f3f" stroke-width="18" stroke-opacity="1" stroke-miterlimit="4"/><path stroke-linecap="round" transform="matrix(-0.75, 0, 0, -0.75, 632.685334, 306.63323)" fill="none" stroke-linejoin="miter" d="M 9.00232 9.000558 L 236.31483 9.000558 " stroke="#de0f3f" stroke-width="18" stroke-opacity="1" stroke-miterlimit="4"/></svg>